# xmcd CD database file
#
# Track frame offsets:
#	150
#	17737
#	36517
#	55122
#	73787
#	93822
#	114120
#	133502
#	147127
#	165480
#	179310
#	197595
#	214065
#	232152
#
# Disc length: 3310 seconds
#
# Revision: 1
# Processed by: cddbd v1.4b41PL3 Copyright (c) Steve Scherf et al.
# Submitted via: CDex 1.40Beta4
#
DISCID=be0cec0e
DTITLE=Brendon Walmsley - A Little time
DYEAR=2000
DGENRE=Country
TTITLE0=The Dish and The Spoon
TTITLE1=Rose and Rodeo
TTITLE2=Change In The Weather
TTITLE3=Riding Out The Story
TTITLE4=What Brothers Do
TTITLE5=Last of the Big Gun Drovers
TTITLE6=Gypsy Spirit (with The Bushwackers)
TTITLE7=Scrapbook
TTITLE8=Roamer
TTITLE9=Musicbox
TTITLE10=End of My Ride
TTITLE11=My Sweet Irish Lady
TTITLE12=Mowerman
TTITLE13=I Should Sing The Blues
EXTD=YEAR: 2000 ID3G:   2
EXTT0=
EXTT1=
EXTT2=
EXTT3=
EXTT4=
EXTT5=
EXTT6=
EXTT7=
EXTT8=
EXTT9=
EXTT10=
EXTT11=
EXTT12=
EXTT13=
PLAYORDER=
